#!OML:ASF F:\VICON\USERDATA\INSTALL\rory3\rory3.ASF
:FULLY-SPECIFIED
:DEGREES
609
root 0.332591 29.1832 -6.88515 1.26335 -48.8091 6.15905
lowerback 2.9684 1.8295 -3.16673
upperback 0.196067 2.33708 0.377525
thorax -1.60462 1.19019 2.0583
lowerneck -14.4116 4.15671 -8.426
upperneck 41.763 8.72074 -0.426016
head 17.5402 1.84437 2.79147
rclavicle 1.2921e-015 1.51076e-014
rhumerus -29.0124 -12.9004 -72.4933
rradius 36.8548
rwrist 20.6402
rhand -21.1876 3.74485
rfingers 7.12502
rthumb 5.19325 -26.1715
lclavicle 1.2921e-015 1.51076e-014
lhumerus -32.6907 16.4949 78.6379
lradius 29.9349
lwrist -6.55345
lhand -12.2543 25.9478
lfingers 7.12502
lthumb 13.8119 55.4693
rfemur -22.6286 -15.1472 18.0451
rtibia 52.2327
rfoot -22.8525 -16.2514
rtoes 11.9581
lfemur -13.6469 2.99528 -27.6213
ltibia 18.1938
lfoot -6.70058 -0.925002
ltoes -8.45731
610
root 0.312686 29.1851 -6.87224 1.28161 -48.0266 6.22081
lowerback 2.8137 1.82247 -3.3069
upperback 0.188682 2.32915 0.404587
thorax -1.5318 1.1864 2.16987
lowerneck -14.3811 4.17839 -8.42903
upperneck 41.8177 8.76517 -0.409057
head 17.5601 1.8667 2.80945
rclavicle 7.65321e-015 -1.98785e-014
rhumerus -29.2577 -13.1403 -72.3884
rradius 36.7423
rwrist 21.3797
rhand -20.9859 3.30106
rfingers 7.12502
rthumb 5.38793 -26.6104
lclavicle 7.65321e-015 -1.98785e-014
lhumerus -32.7069 15.596 79.0872
lradius 30.3162
lwrist -5.21694
lhand -13.295 25.6287
lfingers 7.12502
lthumb 12.8088 55.2158
rfemur -22.8012 -14.8337 17.6953
rtibia 52.6161
rfoot -21.505 -15.662
rtoes 9.80256
lfemur -13.479 2.6761 -27.7351
ltibia 17.9524
lfoot -6.68944 -1.28332
ltoes -8.15968
611
root 0.292823 29.1847 -6.87211 1.28911 -47.1333 6.08668
lowerback 2.98352 1.74392 -3.45769
upperback 0.156398 2.21503 0.539079
thorax -1.66414 1.13366 2.39189
lowerneck -14.1623 4.29283 -8.41282
upperneck 41.6271 8.96628 -0.54771
head 17.3968 1.95742 2.76464
rclavicle 1.26228e-014 -6.36111e-015
rhumerus -29.4669 -13.187 -72.2824
rradius 36.5553
rwrist 22.0718
rhand -20.6548 3.19599
rfingers 7.12502
rthumb 5.70761 -26.7071
lclavicle 1.26228e-014 -6.36111e-015
lhumerus -32.8509 15.1683 79.2914
lradius 30.7299
lwrist -4.96509
lhand -13.1509 25.6928
lfingers 7.12502
lthumb 12.9477 55.2711
rfemur -22.7423 -14.2802 17.5021
rtibia 52.7698
rfoot -20.828 -15.0334
rtoes 9.47647
lfemur -13.2979 2.30092 -27.6441
ltibia 17.8758
lfoot -6.63501 -1.60442
ltoes -7.89973
612
root 0.271504 29.1847 -6.87688 1.60497 -46.1801 5.42895
lowerback 3.27678 1.65823 -3.29367
upperback 0.119199 2.0999 0.775977
thorax -1.86201 1.07967 2.54014
lowerneck -14.0988 4.43152 -8.39464
upperneck 41.603 9.19404 -0.575666
head 17.3577 2.05892 2.78547
rclavicle -2.08724e-015 -1.03368e-014
rhumerus -29.6591 -13.0618 -72.312
rradius 36.3336
rwrist 22.0744
rhand -20.1771 4.31483
rfingers 7.12502
rthumb 6.16885 -25.5754
lclavicle -2.08724e-015 -1.03368e-014
lhumerus -33.0073 14.7573 79.464
lradius 31.1097
lwrist -4.89498
lhand -13.0429 25.5703
lfingers 7.12502
lthumb 13.0518 55.142
rfemur -22.5366 -13.625 17.7424
rtibia 52.7285
rfoot -20.5835 -14.3685
rtoes 9.08496
lfemur -13.1075 1.90696 -27.1146
ltibia 17.8905
lfoot -6.6075 -2.06693
ltoes -7.88018
613
root 0.251989 29.1842 -6.88145 1.77122 -45.1382 5.00844
lowerback 3.55078 1.58372 -3.22586
upperback 0.130598 1.99686 0.925662
thorax -1.99984 1.0303 2.65449
lowerneck -14.4993 4.48752 -8.61354
upperneck 42.069 9.2462 -0.0458119
head 17.6614 2.08305 3.10574
rclavicle 2.78299e-014 -9.54166e-015
rhumerus -29.7912 -12.7933 -72.5331
rradius 36.2139
rwrist 21.3911
rhand -19.8806 6.03667
rfingers 7.12502
rthumb 6.45512 -23.845
lclavicle 2.78299e-014 -9.54166e-015
lhumerus -32.9486 14.297 79.6356
lradius 31.4285
lwrist -4.99635
lhand -13.0253 25.402
lfingers 7.12502
lthumb 13.0688 54.9725
rfemur -22.3235 -13.0991 17.8004
rtibia 52.5637
rfoot -20.1484 -13.6418
rtoes 6.99284
lfemur -13.0421 1.49205 -26.7671
ltibia 18.0896
lfoot -6.67933 -2.61649
ltoes -7.51628
614
root 0.232134 29.1844 -6.88115 1.75257 -44.0269 4.99482
lowerback 3.66008 1.50126 -3.36148
upperback 0.162016 1.87913 0.986633
thorax -2.02697 0.973035 2.79799
lowerneck -14.3146 4.4481 -8.27725
upperneck 41.68 9.25657 -0.562717
head 17.4596 2.10685 2.79885
rclavicle 5.59579e-014 -8.74653e-015
rhumerus -29.8616 -12.6917 -72.6669
rradius 36.0731
rwrist 20.9825
rhand -20.0402 6.70585
rfingers 7.12502
rthumb 6.30101 -23.1804
lclavicle 5.59579e-014 -8.74653e-015
lhumerus -32.7344 13.82 79.831
lradius 31.6989
lwrist -5.00535
lhand -12.844 25.5096
lfingers 7.12502
lthumb 13.2436 55.0688
rfemur -22.14 -12.5963 17.4965
rtibia 52.2416
rfoot -19.8667 -12.803
rtoes 5.15962
lfemur -13.1264 1.00647 -26.7571
ltibia 18.4155
lfoot -6.83805 -3.13273
ltoes -7.68949
